PathFileType	4	(X/Y/Z)	C:\Users\86182\Documents\cortex\Trimmed_M1_H8.trc
DataRate	CameraRate	NumFrames	NumMarkers	Units	OrigDataRate	OrigDataStartFrame	OrigNumFrames
100.00	100.00	       154	2	mm	100.00	361	       901
Frame#	Time	gripper			box			
		X1	Y1	Z1	X2	Y2	Z2	

361	3.600	203.43146	207.20618	293.94702	230.00526	203.34941	146.07758	
362	3.610	203.42647	207.19864	293.97208	229.99541	203.35869	146.10744	
363	3.620	203.42389	207.19254	293.98825	229.99026	203.36545	146.12427	
364	3.630	203.42369	207.18822	293.99707	229.99019	203.36986	146.13077	
365	3.640	203.42557	207.18614	294.00070	229.99480	203.37216	146.12930	
366	3.650	203.42908	207.18666	294.00116	230.00278	203.37274	146.12265	
367	3.660	203.43382	207.18987	294.00006	230.01193	203.37222	146.11412	
368	3.670	203.43954	207.19566	293.99860	230.02051	203.37141	146.10666	
369	3.680	203.44597	207.20364	293.99734	230.02823	203.37102	146.10208	
370	3.690	203.45274	207.21278	293.99646	230.03561	203.37125	146.10078	
371	3.700	203.45929	207.22131	293.99548	230.04282	203.37154	146.10199	
372	3.710	203.46469	207.22676	293.99341	230.04912	203.37050	146.10381	
373	3.720	203.46794	207.22670	293.98853	230.05296	203.36610	146.10272	
374	3.730	203.46826	207.21951	293.97876	230.05269	203.35634	146.09354	
375	3.740	203.46513	207.20483	293.96179	230.04695	203.33958	146.06982	
376	3.750	203.45836	207.18344	293.93530	230.03448	203.31508	146.02524	
377	3.760	203.44780	207.15686	293.89807	230.01369	203.28331	145.95581	
378	3.770	203.43329	207.12669	293.85077	229.98268	203.24649	145.86201	
379	3.780	203.41473	207.09422	293.79688	229.94043	203.20782	145.74896	
380	3.790	203.39243	207.06004	293.74188	229.88757	203.16992	145.62549	
381	3.800	203.36703	207.02467	293.69122	229.82599	203.13388	145.50316	
382	3.810	203.33984	206.98911	293.64844	229.75797	203.09982	145.39413	
383	3.820	203.31287	206.95529	293.61475	229.68665	203.06786	145.30769	
384	3.830	203.28874	206.92592	293.59027	229.61745	203.03900	145.24744	
385	3.840	203.26991	206.90340	293.57462	229.55829	203.01532	145.21138	
386	3.850	203.25780	206.88893	293.56689	229.51706	202.99892	145.19426	
387	3.860	203.25241	206.88223	293.56567	229.49802	202.99091	145.18996	
388	3.870	203.25276	206.88196	293.56927	229.49997	202.99091	145.19293	
389	3.880	203.25714	206.88614	293.57571	229.51698	202.99690	145.19891	
390	3.890	203.26318	206.89226	293.58289	229.53961	203.00528	145.20540	
391	3.900	203.26828	206.89755	293.58847	229.55711	203.01161	145.21179	
392	3.910	203.27023	206.89978	293.59079	229.56140	203.01244	145.21843	
393	3.920	203.26834	206.89819	293.58932	229.55057	203.00696	145.22522	
394	3.930	203.26350	206.89372	293.58502	229.52888	202.99706	145.23128	
395	3.940	203.25748	206.88806	293.57947	229.50337	202.98573	145.23579	
396	3.950	203.25177	206.88268	293.57416	229.48016	202.97562	145.23872	
397	3.960	203.24719	206.87834	293.56985	229.46307	202.96819	145.24069	
398	3.970	203.24399	206.87529	293.56683	229.45370	202.96407	145.24232	
399	3.980	203.24207	206.87344	293.56500	229.45218	202.96327	145.24396	
400	3.990	203.24121	206.87260	293.56418	229.45763	202.96541	145.24553	
401	4.000	203.24110	206.87245	293.56409	229.46834	202.96983	145.24661	
402	4.010	203.24144	206.87274	293.56439	229.48172	202.97551	145.24654	
403	4.020	203.24191	206.87317	293.56488	229.49416	202.98096	145.24483	
404	4.030	203.24231	206.87352	293.56525	229.50153	202.98441	145.24185	
405	4.040	203.24245	206.87366	293.56534	229.50095	202.98453	145.23849	
406	4.050	203.24239	206.87363	293.56525	229.49281	202.98143	145.23550	
407	4.060	203.24226	206.87354	293.56512	229.48067	202.97652	145.23347	
408	4.070	203.24219	206.87349	293.56503	229.46901	202.97162	145.23312	
409	4.080	203.24228	206.87357	293.56512	229.46107	202.96805	145.23505	
410	4.090	203.24255	206.87381	293.56543	229.45821	202.96635	145.23930	
411	4.100	203.24303	206.87422	293.56592	229.45996	202.96643	145.24527	
412	4.110	203.24365	206.87476	293.56656	229.46457	202.96765	145.25185	
413	4.120	203.24429	206.87529	293.56723	229.46967	202.96913	145.25777	
414	4.130	203.24474	206.87567	293.56769	229.47343	202.97026	145.26202	
415	4.140	203.24477	206.87570	293.56772	229.47527	202.97083	145.26389	
416	4.150	203.24437	206.87535	293.56729	229.47528	202.97093	145.26295	
417	4.160	203.24368	206.87477	293.56659	229.47359	202.97064	145.25928	
418	4.170	203.24297	206.87416	293.56586	229.47011	202.96980	145.25354	
419	4.180	203.24236	206.87363	293.56525	229.46495	202.96837	145.24695	
420	4.190	203.24193	206.87326	293.56476	229.45906	202.96655	145.24094	
421	4.200	203.24170	206.87308	293.56454	229.45404	202.96489	145.23685	
422	4.210	203.24170	206.87308	293.56451	229.45148	202.96394	145.23553	
423	4.220	203.24188	206.87323	293.56473	229.45219	202.96408	145.23709	
424	4.230	203.24225	206.87355	293.56512	229.45593	202.96524	145.24084	
425	4.240	203.24274	206.87396	293.56561	229.46136	202.96703	145.24542	
426	4.250	203.24329	206.87442	293.56616	229.46637	202.96870	145.24933	
427	4.260	203.24371	206.87479	293.56662	229.46899	202.96957	145.25148	
428	4.270	203.24387	206.87491	293.56677	229.46848	202.96935	145.25150	
429	4.280	203.24368	206.87476	293.56659	229.46553	202.96832	145.24963	
430	4.290	203.24326	206.87439	293.56616	229.46193	202.96712	145.24667	
431	4.300	203.24275	206.87396	293.56561	229.45944	202.96638	145.24379	
432	4.310	203.24229	206.87358	293.56516	229.45905	202.96643	145.24194	
433	4.320	203.24194	206.87328	293.56476	229.46057	202.96710	145.24162	
434	4.330	203.24168	206.87306	293.56451	229.46297	202.96797	145.24292	
435	4.340	203.24153	206.87294	293.56436	229.46510	202.96857	145.24567	
436	4.350	203.24146	206.87286	293.56427	229.46660	202.96878	145.24942	
437	4.360	203.24142	206.87285	293.56427	229.46754	202.96873	145.25337	
438	4.370	203.24142	206.87285	293.56427	229.46811	202.96863	145.25650	
439	4.380	203.24144	206.87286	293.56427	229.46809	202.96844	145.25800	
440	4.390	203.24147	206.87288	293.56427	229.46709	202.96809	145.25742	
441	4.400	203.24149	206.87289	293.56430	229.46477	202.96741	145.25479	
442	4.410	203.24152	206.87291	293.56433	229.46147	202.96649	145.25043	
443	4.420	203.24152	206.87292	293.56433	229.45839	202.96582	145.24489	
444	4.430	203.24155	206.87294	293.56436	229.45712	202.96593	145.23914	
445	4.440	203.24158	206.87297	293.56439	229.45895	202.96722	145.23444	
446	4.450	203.24161	206.87300	293.56442	229.46413	202.96971	145.23177	
447	4.460	203.24165	206.87303	293.56448	229.47139	202.97279	145.23166	
448	4.470	203.24171	206.87308	293.56454	229.47812	202.97536	145.23416	
449	4.480	203.24176	206.87314	293.56461	229.48163	202.97632	145.23888	
450	4.490	203.24181	206.87317	293.56464	229.48088	202.97536	145.24466	
451	4.500	203.24181	206.87317	293.56464	229.47678	202.97302	145.24994	
452	4.510	203.24176	206.87312	293.56458	229.47083	202.97012	145.25348	
453	4.520	203.24167	206.87306	293.56451	229.46425	202.96721	145.25470	
454	4.530	203.24161	206.87300	293.56445	229.45789	202.96461	145.25378	
455	4.540	203.24161	206.87300	293.56442	229.45241	202.96254	145.25159	
456	4.550	203.24167	206.87306	293.56451	229.44847	202.96115	145.24922	
457	4.560	203.24187	206.87321	293.56470	229.44650	202.96048	145.24774	
458	4.570	203.24219	206.87349	293.56503	229.44649	202.96049	145.24753	
459	4.580	203.24263	206.87387	293.56549	229.44800	202.96103	145.24838	
460	4.590	203.24315	206.87431	293.56604	229.45038	202.96190	145.24966	
461	4.600	203.24367	206.87476	293.56656	229.45285	202.96284	145.25052	
462	4.610	203.24402	206.87505	293.56693	229.45465	202.96364	145.25017	
463	4.620	203.24408	206.87511	293.56699	229.45518	202.96408	145.24828	
464	4.630	203.24385	206.87491	293.56674	229.45424	202.96404	145.24510	
465	4.640	203.24341	206.87453	293.56628	229.45215	202.96358	145.24136	
466	4.650	203.24287	206.87408	293.56577	229.44981	202.96295	145.23801	
467	4.660	203.24239	206.87367	293.56525	229.44815	202.96249	145.23593	
468	4.670	203.24200	206.87334	293.56485	229.44765	202.96230	145.23572	
469	4.680	203.24171	206.87309	293.56458	229.44836	202.96240	145.23756	
470	4.690	203.24155	206.87296	293.56439	229.45000	202.96269	145.24106	
471	4.700	203.24146	206.87288	293.56427	229.45222	202.96315	145.24542	
472	4.710	203.24142	206.87285	293.56424	229.45482	202.96375	145.24991	
473	4.720	203.24142	206.87285	293.56424	229.45740	202.96442	145.25359	
474	4.730	203.24146	206.87286	293.56427	229.45944	202.96506	145.25560	
475	4.740	203.24147	206.87288	293.56427	229.46034	202.96547	145.25534	
476	4.750	203.24149	206.87291	293.56430	229.45978	202.96552	145.25288	
477	4.760	203.24152	206.87292	293.56433	229.45779	202.96513	145.24884	
478	4.770	203.24153	206.87292	293.56433	229.45488	202.96440	145.24431	
479	4.780	203.24153	206.87294	293.56436	229.45180	202.96353	145.24043	
480	4.790	203.24155	206.87294	293.56436	229.44925	202.96272	145.23805	
481	4.800	203.24155	206.87294	293.56436	229.44759	202.96208	145.23753	
482	4.810	203.24155	206.87294	293.56439	229.44682	202.96162	145.23871	
483	4.820	203.24155	206.87294	293.56439	229.44673	202.96133	145.24098	
484	4.830	203.24155	206.87294	293.56439	229.44713	202.96120	145.24371	
485	4.840	203.24155	206.87294	293.56439	229.44777	202.96118	145.24629	
486	4.850	203.24155	206.87294	293.56439	229.44838	202.96121	145.24825	
487	4.860	203.24155	206.87294	293.56439	229.44879	202.96127	145.24927	
488	4.870	203.24155	206.87294	293.56439	229.44904	202.96136	145.24930	
489	4.880	203.24155	206.87294	293.56439	229.44923	202.96155	145.24846	
490	4.890	203.24155	206.87294	293.56439	229.44966	202.96190	145.24695	
491	4.900	203.24155	206.87294	293.56439	229.45067	202.96252	145.24515	
492	4.910	203.24155	206.87294	293.56439	229.45261	202.96352	145.24359	
493	4.920	203.24155	206.87294	293.56439	229.45570	202.96495	145.24251	
494	4.930	203.24155	206.87294	293.56436	229.45985	202.96678	145.24179	
495	4.940	203.24155	206.87294	293.56439	229.46443	202.96880	145.24104	
496	4.950	203.24153	206.87294	293.56439	229.46822	202.97052	145.23997	
497	4.960	203.24155	206.87294	293.56439	229.46988	202.97141	145.23842	
498	4.970	203.24155	206.87294	293.56436	229.46855	202.97105	145.23643	
499	4.980	203.24155	206.87294	293.56436	229.46422	202.96948	145.23425	
500	4.990	203.24155	206.87294	293.56436	229.45790	202.96703	145.23222	
501	5.000	203.24155	206.87294	293.56436	229.45117	202.96434	145.23083	
502	5.010	203.24155	206.87294	293.56439	229.44542	202.96196	145.23044	
503	5.020	203.24155	206.87294	293.56439	229.44153	202.96022	145.23122	
504	5.030	203.24155	206.87294	293.56439	229.43979	202.95926	145.23322	
505	5.040	203.24155	206.87294	293.56439	229.44000	202.95901	145.23621	
506	5.050	203.24155	206.87294	293.56436	229.44153	202.95927	145.23965	
507	5.060	203.24155	206.87294	293.56436	229.44356	202.95978	145.24280	
508	5.070	203.24155	206.87294	293.56436	229.44536	202.96030	145.24503	
509	5.080	203.24155	206.87294	293.56436	229.44655	202.96068	145.24603	
510	5.090	203.24155	206.87294	293.56436	229.44696	202.96089	145.24583	
511	5.100	203.24155	206.87294	293.56436	229.44676	202.96092	145.24478	
512	5.110	203.24155	206.87294	293.56436	229.44626	202.96086	145.24345	
513	5.120	203.24155	206.87294	293.56436	229.44588	202.96082	145.24239	
514	5.130	203.24155	206.87294	293.56436	229.44591	202.96089	145.24179	
